# xmcd CD database file generated by Grip 3.2.0
# 
# Track frame offsets:
#       150
#       11682
#       19995
#       29948
#       45470
#       59754
#       72577
#       87018
#       94770
#       106494
#       115518
#       126987
#       142714
#       154179
#       169153
#       176337
#       190187
#       200464
#       211727
# 
# Disc length: 2977 seconds
# 
# Revision: 2
# Processed by: cddbd v1.5.1PL2 Copyright (c) Steve Scherf et al.
# Submitted via: Grip 3.2.0
# 
DISCID=090b9f13
DTITLE=Various Artist - 1. Velký trampský zpěvník Pří - Sha
DYEAR=2005
DGENRE=Country
TTITLE0=Přístav
TTITLE1=Příšera
TTITLE2=Ptáčkové už zpívat přestali
TTITLE3=Quadalcanal
TTITLE4=Quantanamo
TTITLE5=Rád se vrátím zas
TTITLE6=Rikatádo
TTITLE7=Rodné údolí
TTITLE8=Rosa na kolejích
TTITLE9=Ruty šuty
TTITLE10=Řeka hučí
TTITLE11=Samotář
TTITLE12=Savana
TTITLE13=Sbohem, kapitáne
TTITLE14=Sedm dostavníků
TTITLE15=Sedm žlutých kamínků
TTITLE16=Sedmnáct dnů
TTITLE17=Seno a stáj
TTITLE18=Shady lady
EXTD=Vložila Agina
EXTT0=
EXTT1=
EXTT2=
EXTT3=
EXTT4=
EXTT5=
EXTT6=
EXTT7=
EXTT8=
EXTT9=
EXTT10=
EXTT11=
EXTT12=
EXTT13=
EXTT14=
EXTT15=
EXTT16=
EXTT17=
EXTT18=
PLAYORDER=
